PathFileType	3	(X/Y/Z)	D:\Vicon Database\Healthy Subjects\S0040\Jan. 30, 2020\Force Plate Walk 10.trc
DataRate	CameraRate	NumFrames	NumMarkers	Units	OrigDataRate	OrigDataStartFrame	OrigNumFrames
100.0	100.0	4	53	mm	100.0	451	338	
Frame#	Time	right_foot_cluster2			right_foot_cluster3			sternum_cluster1			sternum_cluster2			sternum_cluster3			left_asis			right_asis			left_psis			right_psis			sacrum_cluster1			sacrum_cluster2			sacrum_cluster3			left_lat_femoral_epicondyle			left_anterior_thigh15			left_anterior_thigh25			left_anterior_thigh50			left_lateral_thigh25			left_lateral_thigh50			left_thigh_cluster1			left_thigh_cluster2			left_thigh_cluster3			left_fibular_head			left_tibial_tuberosity			left_anterior_shank30			left_lateral_malleolus			left_shank_cluster1			left_shank_cluster2			left_shank_cluster3			left_heel			left_metatarsal2			left_foot_cluster1			left_foot_cluster2			left_foot_cluster3			right_lat_femoral_epicondyle			right_anterior_thigh15			right_anterior_thigh25			right_anterior_thigh50			right_lateral_thigh25			right_lateral_thigh50			right_thigh_cluster1			right_thigh_cluster2			right_thigh_cluster3			right_fibular_head			right_tibial_tuberosity			right_lateral_distal_shank			right_anterior_shank30			right_lateral_malleolus			right_shank_cluster1			right_shank_cluster2			right_shank_cluster3			right_heel			right_metatarsal2			right_foot_cluster1			
		X1	Y1	Z1	X2	Y2	Z2	X3	Y3	Z3	X4	Y4	Z4	X5	Y5	Z5	X6	Y6	Z6	X7	Y7	Z7	X8	Y8	Z8	X9	Y9	Z9	X10	Y10	Z10	X11	Y11	Z11	X12	Y12	Z12	X13	Y13	Z13	X14	Y14	Z14	X15	Y15	Z15	X16	Y16	Z16	X17	Y17	Z17	X18	Y18	Z18	X19	Y19	Z19	X20	Y20	Z20	X21	Y21	Z21	X22	Y22	Z22	X23	Y23	Z23	X24	Y24	Z24	X25	Y25	Z25	X26	Y26	Z26	X27	Y27	Z27	X28	Y28	Z28	X29	Y29	Z29	X30	Y30	Z30	X31	Y31	Z31	X32	Y32	Z32	X33	Y33	Z33	X34	Y34	Z34	X35	Y35	Z35	X36	Y36	Z36	X37	Y37	Z37	X38	Y38	Z38	X39	Y39	Z39	X40	Y40	Z40	X41	Y41	Z41	X42	Y42	Z42	X43	Y43	Z43	X44	Y44	Z44	X45	Y45	Z45	X46	Y46	Z46	X47	Y47	Z47	X48	Y48	Z48	X49	Y49	Z49	X50	Y50	Z50	X51	Y51	Z51	X52	Y52	Z52	X53	Y53	Z53	
451	4.5	512.79449	108.17049	-284.00024	512.23352	109.33281	-321.45145	111.98476	1419.2375	-207.69452	99.471863	1392.0557	-198.84904	100.01077	1394.8414	-236.64767	111.60828	1050.2009	-92.216217	116.46319	1038.6614	-342.0892	280.97372	1051.838	-136.49608	283.7937	1049.8754	-255.1893	294.34879	1106.9198	-204.726	299.39417	1081.0497	-215.75951	301.4342	1076.9312	-176.40269	16.285055	540.51569	-70.579651	-43.919018	646.37433	-125.79182	-31.073059	730.86115	-107.51844	17.008375	857.83472	-87.295509	66.247337	684.74243	-44.506111	110.23029	826.36578	-15.781665	97.68821	779.99103	-10.353622	91.228432	751.54175	-13.833346	59.556641	771.36218	-11.843557	-3.8683922	462.90897	-67.746933	-51.308403	461.26077	-128.98401	-30.982098	206.7164	-142.85495	21.602047	94.637543	-110.99033	-48.645794	404.33588	-158.59982	-54.305447	376.62173	-151.46783	-34.29546	377.24936	-184.48845	96.047997	61.920895	-146.71262	-121.93669	67.947815	-148.48682	-61.579216	114.41635	-142.50044	-85.817192	98.773682	-132.42569	-89.811844	104.11754	-170.10141	207.47014	493.48566	-364.43689	101.61029	561.32349	-317.21494	77.119629	646.07861	-311.50177	73.66217	781.16168	-312.16754	185.9561	647.98132	-381.96838	179.75235	795.16815	-398.65677	190.76378	745.79333	-404.53378	180.41315	719.08575	-402.50754	219.3524	719.96863	-395.53519	255.04193	449.52057	-369.42438	218.18947	402.09998	-329.22931	467.57123	289.20764	-345.84174	425.19257	257.77426	-306.61932	544.13605	221.50366	-330.90036	271.2034	356.72101	-272.9006	295.09009	343.9599	-264.31705				592.97015	283.22635	-288.91772	535.82922	71.72184	-290.69559	503.05301	135.25092	-293.8447
452	4.51	490.79465	113.45914	-282.7988	489.82666	114.39352	-320.26266	97.026497	1420.4313	-207.47089	84.471886	1393.2814	-198.68964	85.283432	1396.0635	-236.48415	95.988747	1051.7921	-92.296288	102.92425	1039.4323	-342.47897	265.72107	1053.0132	-135.64508	269.85202	1050.2167	-253.98666	279.68158	1107.5273	-204.23596	284.80365	1081.6577	-214.86539	286.58829	1077.9546	-175.5208	8.095726	539.98224	-69.501488	-54.487488	644.69037	-124.3321	-42.930534	729.52808	-106.95777	2.887481	857.84583	-87.423294	55.610485	685.04077	-43.679157	95.977089	827.85748	-15.213398	84.520119	781.40637	-9.7956581	78.560768	752.75568	-13.179609	46.688789	772.20734	-11.490403	-10.457519	461.84314	-66.505638	-58.958633	459.56723	-127.09788	-33.87962	205.48326	-141.92336	21.138636	94.543678	-111.04961	-55.790222	402.74228	-157.15927	-60.739357	374.91	-149.97646	-41.34919	376.04724	-183.24893	95.891762	62.098866	-146.75554	-122.30235	67.008728	-148.44281	-62.037895	113.94229	-142.55875	-86.211311	98.21106	-132.45401	-90.288338	103.52994	-170.09464	178.96219	492.85437	-364.38968	75.955055	563.43579	-316.56223	54.491886	648.5708	-311.54626	55.488605	783.58295	-311.97696	162.48619	647.40723	-382.43985	160.2011	793.45154	-397.88358	170.23918	744.82867	-404.49942	158.95529	718.5401	-404.42877	198.29892	717.45117	-396.46182	225.38832	449.97421	-370.36728				440.41428	293.36322	-345.82993	399.10599	261.23291	-306.24274	516.99084	227.94638	-331.56454	243.50652	356.66339	-272.7283	266.93359	344.27911	-264.54492				565.69916	290.96826	-289.3085	514.27014	77.937607	-289.67508	480.26749	140.23871	-292.68863
453	4.52	464.04099	120.0718	-280.50488	462.14496	120.83778	-317.9472	82.20903	1421.8746	-207.43336	69.613266	1394.7228	-198.73094	70.70092	1397.4532	-236.52298	80.51619	1053.5568	-92.624786	89.660713	1040.5253	-343.05417	250.8261	1054.8933	-134.69659	255.81166	1050.8083	-253.06779	265.00485	1108.5419	-203.84068	270.41605	1082.7458	-214.03539	271.7356	1079.2097	-174.77235	0.9763099	539.3161	-68.95121	-64.099907	642.78174	-122.85366	-54.007782	728.1026	-106.34478	-10.408318	857.54541	-87.722084	45.805313	685.31494	-43.171864	82.330048	829.5097	-14.660617	72.021988	782.76025	-9.2987299	66.615387	754.04718	-12.760874	34.3246	773.01727	-11.110191	-16.289013	461.07843	-65.464149	-65.839668	458.0567	-125.19987	-36.461063	204.56403	-140.95918	20.697937	94.577972	-111.14972	-62.556946	401.37366	-155.52104	-66.894127	373.47238	-148.26462	-48.177052	374.939	-181.90675	95.744194	62.37812	-146.75287	-122.58895	66.221245	-148.43529	-62.459282	113.49876	-142.62959	-86.547157	97.739639	-132.50089	-90.529243	102.84088	-170.28474	150.58191	493.13361	-364.37289	50.454285	566.1593	-315.33255	32.323898	651.59216	-310.86755	37.644623	786.38434	-311.5314	139.60684	647.59857	-382.40579	142.28851	793.50049	-397.68884	150.99678	744.8056	-404.32129	139.14455	718.35333	-405.19131	177.66531	716.22711	-396.53333	195.87178	450.61765	-370.07349				413.19992	297.60281	-345.56485	372.62415	265.46112	-305.45734	491.38242	233.38205	-330.49936				240.29805	347.46246	-262.49048				540.44592	296.48981	-290.59409	487.47772	84.125572	-287.83704	453.54166	146.90056	-290.3367
454	4.53	433.86053	126.68173	-277.37531	431.40021	126.70966	-314.41599	67.511383	1423.5243	-207.51161	54.885662	1396.3357	-198.95088	56.246662	1399.1373	-236.6981	65.241699	1055.4369	-93.133942	76.608131	1041.9231	-343.70105	235.97318	1056.9318	-133.7352	241.74724	1051.5896	-252.10783	250.54419	1110.3129	-203.10373	256.15134	1084.3993	-213.1266	257.19965	1081.1858	-173.74316	-5.7838168	538.96631	-68.508102	-72.891838	641.08618	-121.58465	-64.627541	726.7182	-105.80316	-23.334164	857.2251	-87.942276	36.055523	686.02838	-42.725342	69.556923	830.88318	-14.506874	59.840118	784.20892	-8.9044523	55.066605	755.27979	-12.398697	22.483795	773.66443	-10.967426	-21.465399	460.62543	-64.841362	-71.949791	456.79251	-123.71257	-38.714127	203.82819	-140.18898	20.275631	94.66082	-111.24678	-68.728554	400.10822	-154.04404	-72.366241	372.12357	-146.61696	-54.462864	373.82245	-180.696	95.524872	62.654518	-146.80667	-122.85185	65.602814	-148.4897	-62.850975	113.2373	-142.72838	-86.817108	97.346046	-132.60272	-90.769852	102.31898	-170.43912	122.10857	494.45462	-364.37256	25.160002	569.59473	-313.97083	10.477967	655.27545	-309.73062	19.991117	789.70215	-310.92477	116.95313	648.41583	-381.97424	125.10059	794.17426	-397.10876	131.54758	745.54193	-403.8335	119.56545	719.44812	-403.2023	157.29602	715.86768	-396.05637	166.91931	452.1171	-370.62808				385.13345	302.08691	-344.99875	345.23691	269.55771	-304.55136	463.60468	238.10809	-329.7988				213.50531	350.27567	-260.95773				515.77515	300.1113	-291.85114	456.1304	89.643257	-285.0025	424.0416	153.55861	-287.18243
